
    <svg width="64" height="64" viewBox="0 0 64 64" fill="none" xmlns="http://www.w3.org/2000/svg">
    <defs>
      <linearGradient id="grad1" x1="0%" y1="0%" x2="100%" y2="100%">
        <stop offset="0%" style="stop-color:hsl(217, 91%, 59%);stop-opacity:1" />
        <stop offset="100%" style="stop-color:hsl(260, 80%, 70%);stop-opacity:1" />
      </linearGradient>
      <filter id="glow">
        <feGaussianBlur stdDeviation="2.5" result="coloredBlur"/>
        <feMerge>
          <feMergeNode in="coloredBlur"/>
          <feMergeNode in="SourceGraphic"/>
        </feMerge>
      </filter>
    </defs>
    <rect width="64" height="64" rx="12" fill="url(#grad1)"/>
    <path d="M20 22C20 19.7909 21.7909 18 24 18H40C42.2091 18 44 19.7909 44 22V42C44 44.2091 42.2091 46 40 46H24C21.7909 46 20 44.2091 20 42V22Z" fill="rgba(255,255,255,0.1)" stroke="rgba(255,255,255,0.5)" stroke-width="2"/>
    <circle cx="32" cy="32" r="8" fill="hsl(210, 40%, 98%)" filter="url(#glow)"/>
    <path d="M32 28C34.2091 28 36 29.7909 36 32C36 34.2091 34.2091 36 32 36C29.7909 36 28 34.2091 28 32C28 29.7909 29.7909 28 32 28Z" fill="hsl(217, 91%, 59%)"/>
    <path d="M32 24V20M32 44V40M40 32H44M20 32H24" stroke="hsl(210, 40%, 98%)" stroke-width="2" stroke-linecap="round" filter="url(#glow)"/>
    </svg>
  